<svg width="16" height="16" viewBox="0 0 16 16" fill="none" xmlns="http://www.w3.org/2000/svg">
    <path d="M8.00004 1.33334C4.32004 1.33334 1.33337 4.32001 1.33337 8.00001C1.33337 11.68 4.32004 14.6667 8.00004 14.6667C11.68 14.6667 14.6667 11.68 14.6667 8.00001C14.6667 4.32001 11.68 1.33334 8.00004 1.33334ZM11.0934 5.86668C10.9934 6.92001 10.56 9.48001 10.34 10.66C10.2467 11.16 10.06 11.3267 9.88671 11.3467C9.50004 11.38 9.20671 11.0933 8.83337 10.8467C8.24671 10.46 7.91337 10.22 7.34671 9.84668C6.68671 9.41334 7.11337 9.17334 7.49337 8.78668C7.59337 8.68668 9.30004 7.13334 9.33337 6.99334C9.33801 6.97214 9.33739 6.95013 9.33158 6.92921C9.32577 6.9083 9.31494 6.88912 9.30004 6.87334C9.26004 6.84001 9.20671 6.85334 9.16004 6.86001C9.10004 6.87334 8.16671 7.49334 6.34671 8.72001C6.08004 8.90001 5.84004 8.99334 5.62671 8.98668C5.38671 8.98001 4.93337 8.85334 4.59337 8.74001C4.17337 8.60668 3.84671 8.53334 3.87337 8.30001C3.88671 8.18001 4.05337 8.06001 4.36671 7.93334C6.31337 7.08668 7.60671 6.52668 8.25337 6.26001C10.1067 5.48668 10.4867 5.35334 10.74 5.35334C10.7934 5.35334 10.92 5.36668 11 5.43334C11.0667 5.48668 11.0867 5.56001 11.0934 5.61334C11.0867 5.65334 11.1 5.77334 11.0934 5.86668Z" fill="#FDFDFD"/>
</svg>
