<svg width="18" height="18" viewBox="0 0 18 18" fill="none" xmlns="http://www.w3.org/2000/svg">
    <g opacity="0.5">
        <path d="M9 11.25C9.59674 11.25 10.169 11.0129 10.591 10.591C11.0129 10.169 11.25 9.59674 11.25 9C11.25 8.40326 11.0129 7.83097 10.591 7.40901C10.169 6.98705 9.59674 6.75 9 6.75C8.40326 6.75 7.83097 6.98705 7.40901 7.40901C6.98705 7.83097 6.75 8.40326 6.75 9C6.75 9.59674 6.98705 10.169 7.40901 10.591C7.83097 11.0129 8.40326 11.25 9 11.25Z"
              stroke="white" stroke-width="1.5" stroke-linecap="round" stroke-linejoin="round"/>
        <path d="M14.7165 7.79625L13.8937 5.80875L15 4.5L13.5 3L12.1987 4.11225L10.1685 3.2775L9.70125 1.5H8.23575L7.76175 3.30075L5.778 4.137L4.5 3L3 4.5L4.08975 5.84175L3.27975 7.8345L1.5 8.25V9.75L3.30075 10.242L4.137 12.225L3 13.5L4.5 15L5.84325 13.905L7.79775 14.709L8.25 16.5H9.75L10.203 14.7098L12.1912 13.8862C12.5227 14.124 13.5 15 13.5 15L15 13.5L13.887 12.1875L14.7105 10.1985L16.5 9.7335V8.25L14.7165 7.79625Z"
              stroke="white" stroke-width="1.5" stroke-linecap="round" stroke-linejoin="round"/>
    </g>
</svg>
