<svg width="16" height="17" viewBox="0 0 16 17" fill="none" xmlns="http://www.w3.org/2000/svg">
    <path d="M14.5 5.01472V11.9852C14.5 12.0656 14.4786 12.1445 14.4378 12.2137C14.3971 12.2829 14.3385 12.34 14.2682 12.379L7.96825 15.8785C7.90147 15.9155 7.82636 15.9349 7.75 15.9349C7.67364 15.9349 7.59853 15.9155 7.53175 15.8785L1.23175 12.379C1.16149 12.34 1.10294 12.2829 1.06219 12.2137C1.02143 12.1445 0.999961 12.0656 1 11.9852V5.01472C1.00009 4.9345 1.02163 4.85577 1.06238 4.78667C1.10312 4.71758 1.1616 4.66063 1.23175 4.62172L7.53175 1.12147C7.59853 1.08444 7.67364 1.065 7.75 1.065C7.82636 1.065 7.90147 1.08444 7.96825 1.12147L14.2682 4.62172C14.3384 4.66063 14.3969 4.71758 14.4376 4.78667C14.4784 4.85577 14.4999 4.9345 14.5 5.01472Z" stroke="#252525" stroke-width="1.5" stroke-linecap="round" stroke-linejoin="round"/>
    <path d="M1.396 4.9705L7.531 8.3785C7.59787 8.41567 7.67311 8.43517 7.74962 8.43517C7.82613 8.43517 7.90137 8.41567 7.96825 8.3785L14.125 4.9585M7.75 15.25V8.5" stroke="#252525" stroke-width="1.5" stroke-linecap="round" stroke-linejoin="round"/>
</svg>
