<svg width="23" height="24" viewBox="0 0 23 24" fill="none" xmlns="http://www.w3.org/2000/svg">
    <path d="M11.5 13.154V21M14.6942 6.385V3M8.30592 6.385V3M16.2917 8.385V11.154C16.2917 11.6844 16.0898 12.1931 15.7303 12.5682C15.3709 12.9433 14.8834 13.154 14.375 13.154H8.62504C8.11671 13.154 7.6292 12.9433 7.26975 12.5682C6.91031 12.1931 6.70837 11.6844 6.70837 11.154V8.384C6.70837 7.85357 6.91031 7.34486 7.26975 6.96979C7.6292 6.59471 8.11671 6.384 8.62504 6.384H14.375C14.8834 6.384 15.3709 6.59471 15.7303 6.96979C16.0898 7.34486 16.2917 7.85357 16.2917 8.384V8.385Z"
          stroke="white" stroke-width="1.5" stroke-linecap="round"/>
</svg>
