<svg width="60" height="12" viewBox="0 0 60 12" fill="none" xmlns="http://www.w3.org/2000/svg">
    <path d="M0.232955 11V0.818182H6.33807V1.91193H1.46591V5.35227H5.88068V6.44602H1.46591V11H0.232955ZM8.29066 11V3.36364H9.46396V11H8.29066ZM8.88725 2.09091C8.65856 2.09091 8.46135 2.01302 8.29563 1.85724C8.13323 1.70147 8.05202 1.5142 8.05202 1.29545C8.05202 1.0767 8.13323 0.889441 8.29563 0.733664C8.46135 0.577888 8.65856 0.5 8.88725 0.5C9.11594 0.5 9.31149 0.577888 9.4739 0.733664C9.63962 0.889441 9.72248 1.0767 9.72248 1.29545C9.72248 1.5142 9.63962 1.70147 9.4739 1.85724C9.31149 2.01302 9.11594 2.09091 8.88725 2.09091ZM11.6129 11V3.36364H12.7464V4.51705H12.826C12.9652 4.1392 13.2171 3.83262 13.5817 3.5973C13.9463 3.36198 14.3572 3.24432 14.8146 3.24432C14.9008 3.24432 15.0085 3.24597 15.1378 3.24929C15.267 3.2526 15.3648 3.25758 15.4311 3.2642V4.45739C15.3913 4.44744 15.3002 4.43253 15.1577 4.41264C15.0185 4.38944 14.871 4.37784 14.7152 4.37784C14.344 4.37784 14.0125 4.45573 13.7209 4.61151C13.4325 4.76397 13.2038 4.97609 13.0348 5.24787C12.8691 5.51634 12.7862 5.82292 12.7862 6.16761V11H11.6129ZM16.8219 11V3.36364H17.9554V4.55682H18.0549C18.214 4.14915 18.4708 3.83262 18.8255 3.60724C19.1801 3.37855 19.606 3.2642 20.1032 3.2642C20.6069 3.2642 21.0262 3.37855 21.361 3.60724C21.699 3.83262 21.9625 4.14915 22.1515 4.55682H22.231C22.4266 4.16241 22.7199 3.84919 23.111 3.61719C23.5021 3.38187 23.9711 3.2642 24.5179 3.2642C25.2007 3.2642 25.7592 3.47798 26.1934 3.90554C26.6275 4.32978 26.8446 4.991 26.8446 5.8892V11H25.6713V5.8892C25.6713 5.32576 25.5172 4.92306 25.209 4.68111C24.9007 4.43916 24.5378 4.31818 24.1202 4.31818C23.5833 4.31818 23.1673 4.48059 22.8723 4.8054C22.5774 5.12689 22.4299 5.53456 22.4299 6.02841V11H21.2367V5.76989C21.2367 5.3357 21.0958 4.98603 20.8141 4.72088C20.5324 4.45241 20.1694 4.31818 19.7253 4.31818C19.4204 4.31818 19.1354 4.39938 18.8702 4.56179C18.6084 4.72419 18.3962 4.94957 18.2338 5.23793C18.0748 5.52296 17.9952 5.85275 17.9952 6.22727V11H16.8219ZM30.72 11L28.3933 3.36364H29.6262L31.2768 9.21023H31.3564L32.987 3.36364H34.2399L35.8507 9.19034H35.9302L37.5808 3.36364H38.8137L36.487 11H35.3336L33.6632 5.13352H33.5439L31.8734 11H30.72ZM42.612 11.179C42.1281 11.179 41.689 11.0878 41.2946 10.9055C40.9002 10.7199 40.5869 10.4531 40.3549 10.1051C40.1229 9.75379 40.0069 9.32955 40.0069 8.83239C40.0069 8.39489 40.0931 8.04025 40.2654 7.76847C40.4378 7.49337 40.6681 7.27794 40.9565 7.12216C41.2449 6.96638 41.563 6.85038 41.911 6.77415C42.2624 6.6946 42.6154 6.63163 42.97 6.58523C43.434 6.52557 43.8102 6.48082 44.0985 6.45099C44.3902 6.41785 44.6023 6.36316 44.7349 6.28693C44.8708 6.2107 44.9387 6.07812 44.9387 5.8892V5.84943C44.9387 5.3589 44.8045 4.97775 44.536 4.70597C44.2709 4.43419 43.8682 4.2983 43.3279 4.2983C42.7678 4.2983 42.3287 4.42093 42.0105 4.66619C41.6923 4.91146 41.4686 5.1733 41.3393 5.4517L40.2257 5.05398C40.4245 4.58996 40.6897 4.22869 41.0211 3.97017C41.3559 3.70833 41.7205 3.52604 42.1149 3.4233C42.5126 3.31723 42.9037 3.2642 43.2882 3.2642C43.5334 3.2642 43.8152 3.29403 44.1333 3.35369C44.4548 3.41004 44.7647 3.5277 45.063 3.70668C45.3646 3.88565 45.6149 4.15578 45.8137 4.51705C46.0126 4.87831 46.112 5.36222 46.112 5.96875V11H44.9387V9.96591H44.8791C44.7995 10.1316 44.667 10.3089 44.4814 10.4979C44.2958 10.6868 44.0488 10.8475 43.7406 10.9801C43.4324 11.1127 43.0562 11.179 42.612 11.179ZM42.791 10.125C43.255 10.125 43.6461 10.0339 43.9643 9.85156C44.2858 9.66927 44.5278 9.43395 44.6902 9.1456C44.8559 8.85724 44.9387 8.55398 44.9387 8.2358V7.16193C44.889 7.22159 44.7797 7.27628 44.6106 7.32599C44.4449 7.3724 44.2527 7.41383 44.0339 7.45028C43.8185 7.48343 43.608 7.51326 43.4025 7.53977C43.2003 7.56297 43.0363 7.58286 42.9103 7.59943C42.6054 7.6392 42.3204 7.70384 42.0552 7.79332C41.7934 7.8795 41.5813 8.01042 41.4189 8.18608C41.2598 8.35843 41.1802 8.59375 41.1802 8.89205C41.1802 9.29972 41.331 9.60795 41.6326 9.81676C41.9376 10.0223 42.3237 10.125 42.791 10.125ZM48.2536 11V3.36364H49.3871V4.51705H49.4666C49.6058 4.1392 49.8577 3.83262 50.2223 3.5973C50.5869 3.36198 50.9979 3.24432 51.4553 3.24432C51.5414 3.24432 51.6491 3.24597 51.7784 3.24929C51.9077 3.2526 52.0054 3.25758 52.0717 3.2642V4.45739C52.032 4.44744 51.9408 4.43253 51.7983 4.41264C51.6591 4.38944 51.5116 4.37784 51.3558 4.37784C50.9846 4.37784 50.6532 4.45573 50.3615 4.61151C50.0732 4.76397 49.8445 4.97609 49.6754 5.24787C49.5097 5.51634 49.4268 5.82292 49.4268 6.16761V11H48.2536ZM56.4318 11.1591C55.696 11.1591 55.0613 10.9967 54.5277 10.6719C53.9974 10.3438 53.5881 9.88636 53.2997 9.29972C53.0147 8.70975 52.8722 8.02367 52.8722 7.24148C52.8722 6.45928 53.0147 5.76989 53.2997 5.1733C53.5881 4.57339 53.9891 4.10606 54.5028 3.77131C55.0199 3.43324 55.6231 3.2642 56.3125 3.2642C56.7102 3.2642 57.103 3.33049 57.4908 3.46307C57.8786 3.59564 58.2315 3.81108 58.5497 4.10938C58.8679 4.40436 59.1214 4.79545 59.3104 5.28267C59.4993 5.76989 59.5938 6.36979 59.5938 7.08239V7.57955H53.7074V6.56534H58.4006C58.4006 6.13447 58.3144 5.75 58.142 5.41193C57.973 5.07386 57.7311 4.80705 57.4162 4.61151C57.1046 4.41596 56.7367 4.31818 56.3125 4.31818C55.8452 4.31818 55.4408 4.43419 55.0994 4.66619C54.7614 4.89489 54.5012 5.19318 54.3189 5.56108C54.1366 5.92898 54.0455 6.32339 54.0455 6.74432V7.42045C54.0455 7.99716 54.1449 8.48603 54.3438 8.88707C54.5459 9.2848 54.826 9.58807 55.1839 9.79688C55.5419 10.0024 55.9579 10.1051 56.4318 10.1051C56.7401 10.1051 57.0185 10.062 57.267 9.97585C57.5189 9.88636 57.736 9.75379 57.9183 9.57812C58.1006 9.39915 58.2415 9.17708 58.3409 8.91193L59.4744 9.23011C59.3551 9.61458 59.1546 9.95265 58.8729 10.2443C58.5911 10.5327 58.2431 10.758 57.8288 10.9205C57.4145 11.0795 56.9489 11.1591 56.4318 11.1591Z"
          fill="white"/>
</svg>
