<svg width="16" height="15" viewBox="0 0 16 15" fill="none" xmlns="http://www.w3.org/2000/svg">
    <path d="M4.65938 1.525L4.33437 2.5H2C0.896875 2.5 0 3.39687 0 4.5V12.5C0 13.6031 0.896875 14.5 2 14.5H14C15.1031 14.5 16 13.6031 16 12.5V4.5C16 3.39687 15.1031 2.5 14 2.5H11.6656L11.3406 1.525C11.1375 0.9125 10.5656 0.5 9.91875 0.5H6.08125C5.43438 0.5 4.8625 0.9125 4.65938 1.525ZM8 5.5C8.79565 5.5 9.55871 5.81607 10.1213 6.37868C10.6839 6.94129 11 7.70435 11 8.5C11 9.29565 10.6839 10.0587 10.1213 10.6213C9.55871 11.1839 8.79565 11.5 8 11.5C7.20435 11.5 6.44129 11.1839 5.87868 10.6213C5.31607 10.0587 5 9.29565 5 8.5C5 7.70435 5.31607 6.94129 5.87868 6.37868C6.44129 5.81607 7.20435 5.5 8 5.5Z" fill="#D9D9D9"/>
</svg>
