<svg width="18" height="18" viewBox="0 0 18 18" fill="none" xmlns="http://www.w3.org/2000/svg">
    <g opacity="0.5">
        <path d="M15.75 5.51466V12.4852C15.75 12.5655 15.7286 12.6444 15.6878 12.7136C15.6471 12.7829 15.5885 12.8399 15.5182 12.8789L9.21825 16.3784C9.15147 16.4154 9.07636 16.4349 9 16.4349C8.92364 16.4349 8.84853 16.4154 8.78175 16.3784L2.48175 12.8789C2.41149 12.8399 2.35294 12.7829 2.31219 12.7136C2.27143 12.6444 2.24996 12.5655 2.25 12.4852V5.51466C2.25009 5.43444 2.27163 5.35571 2.31238 5.28661C2.35312 5.21751 2.4116 5.16057 2.48175 5.12166L8.78175 1.62141C8.84853 1.58437 8.92364 1.56494 9 1.56494C9.07636 1.56494 9.15147 1.58437 9.21825 1.62141L15.5182 5.12166C15.5884 5.16057 15.6469 5.21751 15.6876 5.28661C15.7284 5.35571 15.7499 5.43444 15.75 5.51466Z" stroke="white" stroke-width="1.5" stroke-linecap="round" stroke-linejoin="round"/>
        <path d="M2.646 5.4705L8.781 8.8785C8.84787 8.91567 8.92311 8.93517 8.99962 8.93517C9.07613 8.93517 9.15137 8.91567 9.21825 8.8785L15.375 5.4585M9 15.75V9" stroke="white" stroke-width="1.5" stroke-linecap="round" stroke-linejoin="round"/>
    </g>
</svg>
