<svg width="18" height="18" viewBox="0 0 18 18" fill="none" xmlns="http://www.w3.org/2000/svg">
    <g opacity="0.5">
        <path d="M15.75 5.51475V12.4853C15.75 12.5656 15.7286 12.6445 15.6878 12.7137C15.6471 12.783 15.5885 12.84 15.5182 12.879L9.21825 16.3785C9.15147 16.4155 9.07636 16.435 9 16.435C8.92364 16.435 8.84853 16.4155 8.78175 16.3785L2.48175 12.879C2.41149 12.84 2.35294 12.783 2.31219 12.7137C2.27143 12.6445 2.24996 12.5656 2.25 12.4853V5.51475C2.25009 5.43453 2.27163 5.3558 2.31238 5.2867C2.35312 5.21761 2.4116 5.16066 2.48175 5.12175L8.78175 1.6215C8.84853 1.58447 8.92364 1.56503 9 1.56503C9.07636 1.56503 9.15147 1.58447 9.21825 1.6215L15.5182 5.12175C15.5884 5.16066 15.6469 5.21761 15.6876 5.2867C15.7284 5.3558 15.7499 5.43453 15.75 5.51475Z"
              stroke="white" stroke-width="1.5" stroke-linecap="round" stroke-linejoin="round"/>
        <path d="M2.646 5.4705L8.781 8.8785C8.84787 8.91567 8.92311 8.93517 8.99962 8.93517C9.07613 8.93517 9.15137 8.91567 9.21825 8.8785L15.375 5.4585M9 15.75V9"
              stroke="white" stroke-width="1.5" stroke-linecap="round" stroke-linejoin="round"/>
    </g>
</svg>
