<svg width="18" height="18" viewBox="0 0 18 18" fill="none" xmlns="http://www.w3.org/2000/svg">
<g opacity="0.5">
<path fill-rule="evenodd" clip-rule="evenodd" d="M5.79 2.0925L4.125 4.3125C4.03767 4.42893 3.92444 4.52344 3.79426 4.58853C3.66409 4.65361 3.52054 4.6875 3.375 4.6875H3C2.45299 4.6875 1.92839 4.9048 1.54159 5.29159C1.1548 5.67839 0.9375 6.20299 0.9375 6.75V14.25C0.9375 14.797 1.1548 15.3216 1.54159 15.7084C1.92839 16.0952 2.45299 16.3125 3 16.3125H15C15.547 16.3125 16.0716 16.0952 16.4584 15.7084C16.8452 15.3216 17.0625 14.797 17.0625 14.25V6.75C17.0625 6.20299 16.8452 5.67839 16.4584 5.29159C16.0716 4.9048 15.547 4.6875 15 4.6875H14.625C14.4795 4.6875 14.3359 4.65361 14.2057 4.58853C14.0756 4.52344 13.9623 4.42893 13.875 4.3125L12.21 2.0925C12.1157 1.96675 11.9934 1.86469 11.8528 1.79439C11.7122 1.7241 11.5572 1.6875 11.4 1.6875H6.6C6.28125 1.6875 5.98125 1.8375 5.79 2.0925ZM9 6.1875C8.53217 6.1875 8.06891 6.27965 7.63669 6.45868C7.20447 6.63771 6.81174 6.90012 6.48093 7.23093C6.15012 7.56174 5.88771 7.95447 5.70868 8.38669C5.52965 8.81891 5.4375 9.28217 5.4375 9.75C5.4375 10.2178 5.52965 10.6811 5.70868 11.1133C5.88771 11.5455 6.15012 11.9383 6.48093 12.2691C6.81174 12.5999 7.20447 12.8623 7.63669 13.0413C8.06891 13.2204 8.53217 13.3125 9 13.3125C9.94483 13.3125 10.851 12.9372 11.5191 12.2691C12.1872 11.601 12.5625 10.6948 12.5625 9.75C12.5625 8.80517 12.1872 7.89903 11.5191 7.23093C10.851 6.56283 9.94483 6.1875 9 6.1875Z" fill="black"/>
</g>
</svg>
