<svg width="15" height="14" viewBox="0 0 15 14" fill="none" xmlns="http://www.w3.org/2000/svg">
    <path d="M7.49992 0.333252C6.62444 0.333252 5.75753 0.50569 4.9487 0.840722C4.13986 1.17575 3.40493 1.66682 2.78587 2.28587C1.53563 3.53612 0.833252 5.23181 0.833252 6.99992C0.833252 9.94659 2.74659 12.4466 5.39325 13.3333C5.72659 13.3866 5.83325 13.1799 5.83325 12.9999V11.8733C3.98659 12.2733 3.59325 10.9799 3.59325 10.9799C3.28659 10.2066 2.85325 9.99992 2.85325 9.99992C2.24659 9.58659 2.89992 9.59992 2.89992 9.59992C3.56659 9.64659 3.91992 10.2866 3.91992 10.2866C4.49992 11.2999 5.47992 10.9999 5.85992 10.8399C5.91992 10.4066 6.09325 10.1133 6.27992 9.94659C4.79992 9.77992 3.24659 9.20659 3.24659 6.66659C3.24659 5.92659 3.49992 5.33325 3.93325 4.85992C3.86659 4.69325 3.63325 3.99992 3.99992 3.09992C3.99992 3.09992 4.55992 2.91992 5.83325 3.77992C6.35992 3.63325 6.93325 3.55992 7.49992 3.55992C8.06659 3.55992 8.63992 3.63325 9.16659 3.77992C10.4399 2.91992 10.9999 3.09992 10.9999 3.09992C11.3666 3.99992 11.1333 4.69325 11.0666 4.85992C11.4999 5.33325 11.7533 5.92659 11.7533 6.66659C11.7533 9.21325 10.1933 9.77325 8.70659 9.93992C8.94659 10.1466 9.16659 10.5533 9.16659 11.1733V12.9999C9.16659 13.1799 9.27325 13.3933 9.61325 13.3333C12.2599 12.4399 14.1666 9.94659 14.1666 6.99992C14.1666 6.12444 13.9941 5.25753 13.6591 4.4487C13.3241 3.63986 12.833 2.90493 12.214 2.28587C11.5949 1.66682 10.86 1.17575 10.0511 0.840722C9.2423 0.50569 8.3754 0.333252 7.49992 0.333252Z" fill="#FDFDFD"/>
</svg>