<svg width="16" height="16" viewBox="0 0 16 16" fill="none" xmlns="http://www.w3.org/2000/svg">
    <path d="M8.00004 1.33334C7.12456 1.33334 6.25766 1.50578 5.44882 1.84081C4.63998 2.17584 3.90505 2.66691 3.286 3.28596C2.03575 4.53621 1.33337 6.2319 1.33337 8.00001C1.33337 10.9467 3.24671 13.4467 5.89337 14.3333C6.22671 14.3867 6.33337 14.18 6.33337 14V12.8733C4.48671 13.2733 4.09337 11.98 4.09337 11.98C3.78671 11.2067 3.35337 11 3.35337 11C2.74671 10.5867 3.40004 10.6 3.40004 10.6C4.06671 10.6467 4.42004 11.2867 4.42004 11.2867C5.00004 12.3 5.98004 12 6.36004 11.84C6.42004 11.4067 6.59337 11.1133 6.78004 10.9467C5.30004 10.78 3.74671 10.2067 3.74671 7.66668C3.74671 6.92668 4.00004 6.33334 4.43337 5.86001C4.36671 5.69334 4.13337 5.00001 4.50004 4.10001C4.50004 4.10001 5.06004 3.92001 6.33337 4.78001C6.86004 4.63334 7.43337 4.56001 8.00004 4.56001C8.56671 4.56001 9.14004 4.63334 9.66671 4.78001C10.94 3.92001 11.5 4.10001 11.5 4.10001C11.8667 5.00001 11.6334 5.69334 11.5667 5.86001C12 6.33334 12.2534 6.92668 12.2534 7.66668C12.2534 10.2133 10.6934 10.7733 9.20671 10.94C9.44671 11.1467 9.66671 11.5533 9.66671 12.1733V14C9.66671 14.18 9.77337 14.3933 10.1134 14.3333C12.76 13.44 14.6667 10.9467 14.6667 8.00001C14.6667 7.12453 14.4943 6.25762 14.1592 5.44879C13.8242 4.63995 13.3331 3.90502 12.7141 3.28596C12.095 2.66691 11.3601 2.17584 10.5513 1.84081C9.74243 1.50578 8.87552 1.33334 8.00004 1.33334Z" fill="#FDFDFD"/>
</svg>
